<?xml version="1.0" standalone="no"?><!DOCTYPE svg PUBLIC "-//W3C//DTD SVG 1.1//EN" "http://www.w3.org/Graphics/SVG/1.1/DTD/svg11.dtd"><svg height="1024" node-id="1" sillyvg="true" template-height="1024" template-width="1024" version="1.1" viewBox="0 0 1024 1024" width="1024" xmlns="http://www.w3.org/2000/svg" xmlns:xlink="http://www.w3.org/1999/xlink"><defs node-id="26"></defs><path d="M 0.00 0.00 L 1024.00 0.00 L 1024.00 1024.00 L 0.00 1024.00 Z" fill="#ffffff" fill-rule="nonzero" node-id="28" stroke="none" target-height="1024" target-width="1024" target-x="0" target-y="0"></path><path d="M 433.00 289.02 L 433.00 623.98 C 432.12 623.99 431.24 624.00 430.36 624.00 C 329.01 624.00 231.00 549.01 231.00 456.50 C 231.00 363.99 329.01 289.00 430.36 289.00 C 431.24 289.00 432.12 289.01 433.00 289.02 Z" fill="#c9d0df" fill-rule="nonzero" node-id="30" stroke="none" target-height="335" target-width="202" target-x="231" target-y="289"></path><path d="M 435.00 287.04 L 435.00 625.96 L 433.03 625.98 C 432.14 625.99 431.25 626.00 430.36 626.00 C 379.21 626.00 328.93 607.08 291.41 576.49 C 253.89 545.90 229.00 503.49 229.00 456.50 C 229.00 409.51 253.89 367.10 291.41 336.51 C 328.93 305.92 379.21 287.00 430.36 287.00 C 431.25 287.00 432.14 287.01 433.03 287.02 L 435.00 287.04 Z M 433.00 623.98 L 433.00 289.02 C 432.12 289.01 431.24 289.00 430.36 289.00 C 329.01 289.00 231.00 363.99 231.00 456.50 C 231.00 549.01 329.01 624.00 430.36 624.00 C 431.24 624.00 432.12 623.99 433.00 623.98 Z" fill="#a6acbc" fill-rule="evenodd" node-id="32" stroke="none" target-height="339" target-width="206" target-x="229" target-y="287"></path><path d="M 432.93 523.78 C 377.80 521.76 337.30 508.09 303.42 484.26 C 272.95 462.84 260.48 422.64 276.00 388.79 C 302.48 331.00 357.27 289.00 430.28 289.00 C 431.17 289.00 432.05 289.01 432.93 289.02 L 432.93 523.78 Z" fill="#dde3ef" fill-rule="nonzero" node-id="34" stroke="none" target-height="234.78497" target-width="172.44199" target-x="260.483" target-y="289"></path><path d="M 618.00 624.00 C 723.89 622.71 793.00 548.21 793.00 456.50 C 793.00 364.79 723.89 290.29 618.00 289.00 L 618.00 624.00 Z" fill="#c9d0df" fill-rule="nonzero" node-id="36" stroke="none" target-height="335" target-width="175" target-x="618" target-y="289"></path><path d="M 616.00 626.02 L 616.00 286.98 L 618.02 287.00 C 724.97 288.30 795.00 363.65 795.00 456.50 C 795.00 549.35 724.97 624.70 618.02 626.00 L 616.00 626.02 Z M 618.00 289.00 C 618.67 289.01 619.34 289.02 620.00 289.03 C 724.76 291.23 793.00 365.37 793.00 456.50 C 793.00 547.63 724.76 621.77 620.00 623.97 C 619.34 623.98 618.67 623.99 618.00 624.00 L 618.00 289.00 Z" fill="#a6acbc" fill-rule="evenodd" node-id="38" stroke="none" target-height="339.049" target-width="179" target-x="616" target-y="286.976"></path><path d="M 749.50 363.50 C 775.62 424.02 749.92 505.50 729.67 529.20 L 617.09 343.07 L 617.09 288.71 C 637.47 288.96 656.48 291.92 673.90 297.19 C 706.27 309.62 736.14 332.54 749.50 363.50 Z" fill="#dde3ef" fill-rule="nonzero" node-id="40" stroke="none" target-height="240.48203" target-width="158.53503" target-x="617.087" target-y="288.715"></path><path d="M 530.00 456.50 C 530.00 459.86 505.87 465.27 505.76 468.58 C 505.65 471.80 529.56 472.92 529.35 476.08 C 528.43 489.70 526.58 502.83 523.89 515.25 C 523.56 516.79 499.84 516.65 499.49 518.17 C 498.89 520.70 521.63 524.87 520.97 527.33 C 517.57 539.93 513.30 551.68 508.29 562.33 C 507.22 564.61 480.56 568.08 479.42 570.25 C 478.08 572.82 502.24 574.08 500.81 576.50 C 497.42 582.22 493.79 587.52 489.95 592.33 C 488.21 594.52 464.11 594.93 462.29 596.92 C 460.59 598.75 481.18 602.17 479.42 603.83 C 474.25 608.69 463.37 608.74 457.69 611.92 C 455.09 613.37 457.87 618.66 455.18 619.74 C 452.71 620.73 438.91 617.93 436.37 618.58 C 431.73 619.77 438.27 624.00 433.44 624.00 C 419.13 624.00 405.54 618.59 393.32 608.89 C 391.33 607.32 398.57 602.88 396.66 601.08 C 394.90 599.43 382.89 589.17 381.19 587.33 C 370.99 576.25 363.15 573.20 355.98 556.50 C 354.98 554.18 344.92 556.41 343.99 554.00 C 343.36 552.35 351.84 546.10 351.24 544.42 C 346.24 530.38 342.40 514.97 339.96 498.58 C 339.59 496.11 321.31 494.86 321.00 492.33 C 320.74 490.13 338.44 486.65 338.22 484.42 C 337.34 475.34 347.34 458.51 347.34 449.00 C 347.34 437.14 337.60 433.08 338.95 421.92 C 339.34 418.69 352.27 421.32 352.77 418.17 C 353.08 416.21 354.51 406.35 354.86 404.42 C 358.14 386.22 362.26 372.62 350.26 359.83 C 345.25 354.49 332.76 353.06 334.38 349.83 C 335.60 347.41 363.10 341.71 364.39 339.42 C 369.75 329.91 375.76 321.50 382.28 314.42 C 384.38 312.14 372.31 311.41 374.51 309.42 C 376.02 308.05 391.76 305.34 393.32 304.11 C 405.54 294.41 419.13 289.00 433.44 289.00 C 436.69 289.00 434.88 299.71 438.04 300.25 C 439.58 300.51 446.13 290.41 447.65 290.80 C 448.92 291.12 453.51 306.09 454.76 306.50 C 466.75 310.42 474.62 303.57 484.60 314.42 C 485.48 315.37 472.72 328.42 473.57 329.42 C 474.50 330.50 487.71 326.61 488.62 327.75 C 492.46 332.57 497.42 330.78 500.81 336.50 C 501.85 338.26 477.17 351.74 478.17 353.58 C 479.34 355.75 499.70 350.06 500.81 352.33 C 508.71 368.59 521.35 383.74 525.24 404.42 C 525.73 407.03 503.45 412.58 503.87 415.25 C 504.09 416.63 527.03 415.10 527.23 416.50 C 529.04 429.32 530.00 442.71 530.00 456.50 Z" fill="#e6eaf3" fill-rule="nonzero" node-id="42" stroke="none" target-height="335" target-width="209.264" target-x="320.736" target-y="289"></path><path d="M 375.77 308.81 C 377.62 308.16 381.05 307.37 384.40 306.59 C 388.55 305.63 392.57 304.70 393.32 304.11 C 405.54 294.41 419.13 289.00 433.44 289.00 C 435.08 289.00 435.43 291.74 435.79 294.52 C 436.13 297.23 436.48 299.98 438.04 300.25 C 438.80 300.38 440.79 297.98 442.79 295.56 C 444.83 293.09 446.89 290.61 447.65 290.80 C 448.29 290.96 449.78 294.87 451.26 298.74 C 452.71 302.54 454.14 306.30 454.76 306.50 C 459.31 307.99 463.26 307.92 466.96 307.87 C 473.02 307.77 478.40 307.69 484.60 314.42 C 485.04 314.89 482.09 318.37 479.12 321.87 C 477.31 324.00 475.49 326.14 474.44 327.61 C 474.43 327.62 474.43 327.63 474.42 327.64 C 473.75 328.57 473.40 329.22 473.57 329.42 C 473.76 329.64 474.48 329.65 475.51 329.54 C 475.53 329.54 475.54 329.54 475.56 329.53 C 476.99 329.37 478.99 328.98 481.00 328.58 C 484.57 327.88 488.16 327.18 488.62 327.75 C 490.40 329.99 492.43 330.80 494.42 331.60 C 496.73 332.52 498.99 333.43 500.81 336.50 C 501.33 337.38 495.48 341.15 489.60 344.95 C 485.44 347.63 481.27 350.33 479.30 352.03 C 479.30 352.03 479.30 352.03 479.30 352.03 C 478.45 352.76 478.02 353.30 478.17 353.58 C 478.35 353.93 479.02 354.07 480.01 354.08 C 480.02 354.08 480.03 354.08 480.04 354.08 C 482.15 354.11 485.75 353.53 489.35 352.94 C 494.78 352.07 500.25 351.18 500.81 352.33 C 503.26 357.37 506.16 362.30 509.12 367.32 C 515.70 378.51 522.55 390.15 525.24 404.42 C 525.49 405.72 520.07 407.75 514.62 409.80 C 510.99 411.16 507.35 412.53 505.38 413.68 C 505.31 413.72 505.25 413.76 505.19 413.80 C 504.31 414.34 503.81 414.83 503.87 415.25 C 503.91 415.49 504.61 415.64 505.75 415.73 C 505.79 415.74 505.83 415.74 505.87 415.74 C 508.07 415.92 511.79 415.89 515.51 415.87 C 521.32 415.83 527.13 415.80 527.23 416.50 C 529.04 429.32 530.00 442.71 530.00 456.50 C 530.00 458.19 523.88 460.40 517.80 462.60 C 511.79 464.78 505.81 466.94 505.76 468.58 C 505.70 470.20 511.68 471.28 517.64 472.36 C 523.56 473.44 529.45 474.50 529.35 476.08 C 528.43 489.70 526.58 502.83 523.89 515.25 C 523.73 516.02 517.67 516.37 511.63 516.72 C 507.64 516.95 503.66 517.18 501.39 517.53 C 501.36 517.54 501.32 517.54 501.29 517.55 C 500.21 517.72 499.54 517.92 499.49 518.17 C 499.39 518.59 499.93 519.05 500.89 519.54 C 500.95 519.57 501.00 519.60 501.06 519.62 C 503.06 520.61 506.70 521.70 510.32 522.79 C 515.82 524.45 521.30 526.10 520.97 527.33 C 517.57 539.93 513.30 551.68 508.29 562.33 C 507.75 563.49 500.62 564.95 493.58 566.39 C 488.47 567.44 483.40 568.48 480.94 569.38 C 480.93 569.38 480.93 569.38 480.93 569.38 C 480.10 569.69 479.56 569.98 479.42 570.25 C 479.18 570.72 479.78 571.15 480.92 571.54 C 480.93 571.54 480.94 571.55 480.94 571.55 C 482.98 572.25 486.69 572.86 490.36 573.47 C 495.98 574.39 501.52 575.30 500.81 576.50 C 497.42 582.22 493.79 587.52 489.95 592.33 C 489.06 593.46 482.26 594.11 475.62 594.75 C 471.04 595.19 466.52 595.63 464.07 596.21 C 464.02 596.22 463.97 596.23 463.92 596.24 C 463.09 596.45 462.51 596.67 462.29 596.92 C 461.93 597.30 462.55 597.75 463.72 598.24 C 463.74 598.25 463.75 598.25 463.77 598.26 C 463.82 598.28 463.86 598.30 463.91 598.32 C 465.63 599.00 468.40 599.76 471.14 600.51 C 473.72 601.22 476.27 601.91 477.87 602.53 C 477.88 602.54 477.89 602.54 477.89 602.54 C 478.08 602.62 478.26 602.69 478.42 602.76 C 479.32 603.16 479.74 603.52 479.42 603.83 C 476.40 606.67 471.41 607.87 466.66 609.01 C 463.29 609.82 460.04 610.60 457.69 611.92 C 456.40 612.64 456.43 614.30 456.47 615.93 C 456.50 617.59 456.54 619.20 455.18 619.74 C 453.85 620.27 449.26 619.71 444.90 619.18 C 441.14 618.72 437.55 618.28 436.37 618.58 C 434.02 619.18 434.54 620.57 435.00 621.78 C 435.44 622.97 435.83 624.00 433.44 624.00 C 419.13 624.00 405.54 618.59 393.32 608.89 C 392.33 608.11 393.61 606.63 394.93 605.11 C 396.26 603.57 397.62 601.99 396.66 601.08 C 396.01 600.47 393.98 598.70 391.58 596.61 C 387.46 593.02 382.26 588.50 381.19 587.33 C 378.22 584.11 375.45 581.56 372.84 579.16 C 366.48 573.32 361.06 568.34 355.98 556.50 C 355.48 555.35 352.77 555.32 350.04 555.28 C 347.26 555.25 344.46 555.22 343.99 554.00 C 343.68 553.18 345.63 551.21 347.60 549.23 C 349.57 547.25 351.54 545.26 351.24 544.42 C 346.24 530.38 342.40 514.97 339.96 498.58 C 339.78 497.35 335.17 496.42 330.54 495.49 C 325.86 494.55 321.16 493.60 321.00 492.33 C 320.87 491.23 325.21 489.81 329.57 488.39 C 333.94 486.97 338.33 485.54 338.22 484.42 C 337.76 479.66 340.28 472.79 342.79 465.95 C 345.07 459.73 347.34 453.53 347.34 449.00 C 347.34 443.26 345.06 439.35 342.85 435.57 C 340.51 431.55 338.25 427.68 338.95 421.92 C 339.14 420.29 342.51 420.15 345.88 420.01 C 349.20 419.87 352.52 419.74 352.77 418.17 C 352.88 417.49 353.11 415.89 353.40 413.99 C 353.94 410.37 354.63 405.68 354.86 404.42 C 355.18 402.65 355.50 400.93 355.82 399.25 C 358.78 383.59 361.10 371.38 350.26 359.83 C 347.85 357.26 343.71 355.60 340.25 354.21 C 336.50 352.70 333.54 351.51 334.38 349.83 C 335.00 348.60 342.43 346.52 349.75 344.47 C 356.81 342.49 363.76 340.54 364.39 339.42 C 369.75 329.91 375.76 321.50 382.28 314.42 C 383.35 313.25 380.72 312.50 378.19 311.76 C 377.30 311.51 376.43 311.26 375.73 310.99 C 375.73 310.99 375.73 310.99 375.73 310.99 C 375.73 310.99 375.73 310.99 375.73 310.99 C 374.52 310.53 373.82 310.04 374.51 309.42 C 374.70 309.24 375.15 309.03 375.77 308.81 C 375.77 308.81 375.77 308.81 375.77 308.81 C 375.77 308.81 375.77 308.81 375.77 308.81 Z M 468.04 597.57 C 469.09 597.87 470.23 598.19 471.41 598.51 L 471.71 598.59 C 473.94 599.20 476.25 599.83 477.91 600.42 C 478.75 600.71 479.60 601.05 480.22 601.46 C 480.47 601.62 481.02 602.00 481.32 602.66 C 481.50 603.05 481.60 603.56 481.47 604.12 C 481.35 604.65 481.05 605.04 480.79 605.28 C 477.78 608.12 473.26 609.44 469.23 610.44 C 468.50 610.63 467.78 610.80 467.08 610.97 C 465.76 611.28 464.51 611.58 463.29 611.92 C 461.44 612.44 459.87 612.99 458.66 613.66 C 458.65 613.67 458.65 613.67 458.65 613.67 C 458.65 613.67 458.64 613.68 458.64 613.68 C 458.62 613.71 458.58 613.80 458.54 614.00 C 458.44 614.46 458.45 615.04 458.47 615.93 L 458.47 616.01 C 458.49 616.76 458.51 617.80 458.29 618.73 C 458.03 619.81 457.38 621.01 455.92 621.60 C 455.26 621.86 454.48 621.92 453.83 621.95 C 453.12 621.97 452.29 621.94 451.42 621.88 C 449.68 621.76 447.59 621.52 445.56 621.27 C 445.26 621.24 444.95 621.20 444.65 621.16 C 442.92 620.95 441.26 620.75 439.85 620.62 C 439.02 620.54 438.32 620.50 437.77 620.49 C 437.49 620.48 437.27 620.49 437.10 620.50 C 436.95 620.51 436.88 620.52 436.87 620.52 C 436.86 620.52 436.86 620.52 436.87 620.52 C 436.80 620.54 436.74 620.55 436.69 620.57 C 436.73 620.70 436.78 620.84 436.85 621.03 L 436.88 621.10 C 436.97 621.36 437.12 621.75 437.21 622.12 C 437.31 622.51 437.43 623.21 437.18 623.95 C 436.89 624.83 436.23 625.38 435.51 625.67 C 434.87 625.93 434.15 626.00 433.44 626.00 C 418.60 626.00 404.58 620.39 392.07 610.46 C 391.34 609.88 390.95 609.05 390.97 608.15 C 390.98 607.39 391.27 606.74 391.52 606.29 C 391.99 605.45 392.75 604.57 393.35 603.88 L 393.45 603.76 C 394.06 603.06 394.51 602.52 394.79 602.08 C 393.90 601.28 392.24 599.84 390.32 598.16 C 389.44 597.40 388.52 596.60 387.59 595.78 C 384.21 592.84 380.67 589.71 379.72 588.69 C 376.94 585.67 374.27 583.21 371.70 580.85 C 365.28 574.95 359.50 569.63 354.27 557.61 C 354.12 557.56 353.88 557.50 353.53 557.45 C 352.59 557.32 351.36 557.30 349.93 557.28 L 349.91 557.28 C 348.58 557.27 347.06 557.25 345.81 557.06 C 345.19 556.96 344.49 556.80 343.87 556.51 C 343.25 556.21 342.49 555.67 342.13 554.72 C 341.72 553.65 342.16 552.68 342.37 552.27 C 342.63 551.75 343.02 551.23 343.40 550.77 C 344.15 549.86 345.19 548.82 346.13 547.87 L 346.19 547.81 C 347.19 546.80 348.10 545.88 348.73 545.12 C 348.93 544.88 349.07 544.69 349.17 544.55 C 344.27 530.69 340.50 515.53 338.07 499.45 C 337.70 499.27 337.13 499.07 336.34 498.84 C 334.66 498.36 332.43 497.91 330.08 497.44 L 330.06 497.44 C 327.76 496.97 325.35 496.48 323.49 495.95 C 322.56 495.68 321.67 495.37 320.95 494.99 C 320.60 494.80 320.20 494.55 319.86 494.22 C 319.52 493.88 319.11 493.34 319.02 492.57 C 318.91 491.72 319.28 491.06 319.58 490.67 C 319.88 490.30 320.24 490.01 320.55 489.80 C 321.18 489.37 322.00 488.98 322.85 488.63 C 324.53 487.93 326.76 487.21 328.89 486.51 L 328.97 486.49 C 331.18 485.76 333.28 485.08 334.82 484.44 C 335.42 484.19 335.87 483.97 336.18 483.80 C 336.09 481.36 336.60 478.63 337.35 475.87 C 338.18 472.77 339.38 469.44 340.57 466.18 C 340.68 465.88 340.80 465.57 340.91 465.27 C 341.99 462.30 343.06 459.40 343.87 456.69 C 344.78 453.68 345.34 451.08 345.34 449.00 C 345.34 443.81 343.30 440.31 341.07 436.49 C 341.02 436.39 340.96 436.30 340.91 436.20 C 338.63 432.29 336.20 427.97 336.96 421.68 C 337.11 420.50 337.84 419.71 338.58 419.26 C 339.27 418.83 340.08 418.60 340.81 418.45 C 342.25 418.16 344.07 418.09 345.68 418.02 L 345.74 418.02 C 347.46 417.95 348.97 417.88 350.08 417.67 C 350.45 417.60 350.70 417.52 350.86 417.46 C 350.97 416.69 351.17 415.35 351.40 413.81 C 351.94 410.16 352.66 405.36 352.89 404.06 C 353.22 402.24 353.55 400.49 353.87 398.79 C 355.19 391.82 356.33 385.76 356.29 380.11 C 356.23 373.27 354.41 367.18 348.80 361.20 C 347.78 360.12 346.30 359.15 344.54 358.26 C 342.91 357.43 341.17 356.73 339.49 356.06 C 339.35 356.00 339.22 355.95 339.09 355.90 C 337.37 355.20 335.60 354.48 334.37 353.68 C 333.77 353.28 333.07 352.72 332.64 351.93 C 332.13 351.00 332.09 349.93 332.59 348.94 C 332.92 348.28 333.49 347.88 333.81 347.67 C 334.20 347.41 334.66 347.18 335.14 346.96 C 336.11 346.52 337.37 346.07 338.78 345.61 C 341.60 344.68 345.24 343.66 348.82 342.65 L 349.19 342.55 C 352.67 341.57 356.08 340.62 358.72 339.77 C 360.09 339.33 361.20 338.93 361.99 338.59 C 362.37 338.42 362.63 338.29 362.79 338.20 C 367.87 329.22 373.53 321.19 379.68 314.31 C 379.16 314.13 378.52 313.94 377.80 313.73 C 377.72 313.71 377.64 313.69 377.56 313.67 C 376.45 313.35 375.13 312.96 374.21 312.52 C 373.80 312.32 372.98 311.88 372.53 311.06 C 372.26 310.54 372.14 309.90 372.33 309.23 C 372.50 308.63 372.86 308.21 373.16 307.94 C 373.47 307.65 373.83 307.46 374.08 307.34 C 374.37 307.21 374.68 307.08 375.01 306.96 C 375.66 306.73 376.46 306.49 377.34 306.25 C 379.09 305.77 381.29 305.26 383.44 304.76 C 383.61 304.72 383.77 304.68 383.94 304.65 C 385.94 304.18 387.87 303.73 389.43 303.33 C 390.27 303.11 390.97 302.91 391.49 302.74 C 391.75 302.65 391.94 302.58 392.06 302.52 C 392.10 302.51 392.12 302.49 392.14 302.49 C 404.63 292.59 418.62 287.00 433.44 287.00 C 434.49 287.00 435.33 287.46 435.92 288.12 C 436.46 288.71 436.78 289.43 436.98 290.05 C 437.39 291.27 437.59 292.82 437.75 294.12 L 437.76 294.17 C 437.94 295.58 438.09 296.76 438.35 297.64 C 438.40 297.58 438.46 297.52 438.53 297.46 C 439.32 296.62 440.27 295.47 441.28 294.25 L 441.31 294.20 C 442.31 293.00 443.37 291.72 444.29 290.77 C 444.74 290.30 445.22 289.83 445.69 289.49 C 445.93 289.32 446.23 289.13 446.57 288.99 C 446.90 288.86 447.48 288.69 448.15 288.86 C 448.58 288.98 448.89 289.19 449.06 289.33 C 449.24 289.48 449.38 289.64 449.48 289.77 C 449.69 290.02 449.87 290.31 450.01 290.57 C 450.32 291.10 450.64 291.80 450.96 292.54 C 451.61 294.04 452.36 296.00 453.08 297.91 L 453.12 298.00 C 453.84 299.90 454.55 301.74 455.14 303.13 C 455.45 303.85 455.70 304.40 455.90 304.76 C 455.90 304.76 455.90 304.76 455.90 304.76 C 459.88 305.97 463.25 305.92 466.72 305.86 C 467.95 305.84 469.20 305.82 470.49 305.86 C 472.97 305.93 475.53 306.23 478.16 307.30 C 480.81 308.38 483.41 310.17 486.07 313.06 C 486.53 313.55 486.63 314.12 486.64 314.48 C 486.65 314.83 486.58 315.13 486.53 315.31 C 486.41 315.69 486.23 316.04 486.07 316.30 C 485.74 316.87 485.25 317.54 484.71 318.24 C 483.63 319.64 482.13 321.41 480.67 323.13 L 480.62 323.19 C 479.39 324.65 478.18 326.06 477.23 327.26 C 478.27 327.08 479.44 326.85 480.66 326.61 L 480.72 326.60 C 482.47 326.26 484.30 325.90 485.75 325.70 C 486.46 325.60 487.17 325.53 487.77 325.54 C 488.06 325.54 488.42 325.56 488.77 325.65 C 489.05 325.71 489.70 325.90 490.18 326.50 C 491.63 328.32 493.20 328.95 495.22 329.76 C 495.36 329.82 495.50 329.88 495.64 329.93 C 497.91 330.86 500.50 332.05 502.53 335.48 C 503.23 336.67 502.56 337.78 502.41 338.03 C 502.15 338.44 501.79 338.81 501.47 339.12 C 500.79 339.76 499.82 340.50 498.74 341.28 C 496.57 342.83 493.62 344.74 490.71 346.61 L 490.59 346.69 C 487.69 348.56 484.85 350.40 482.75 351.90 C 484.58 351.69 486.80 351.33 489.09 350.96 L 489.19 350.94 C 491.86 350.51 494.62 350.07 496.80 349.88 C 497.87 349.79 498.91 349.75 499.76 349.83 C 500.19 349.88 500.67 349.96 501.12 350.14 C 501.56 350.31 502.23 350.68 502.61 351.46 C 505.03 356.44 507.85 361.24 510.77 366.19 C 512.59 369.29 514.45 372.44 516.28 375.75 C 520.96 384.24 525.20 393.41 527.21 404.05 C 527.38 404.97 527.00 405.71 526.69 406.12 C 526.38 406.55 525.98 406.88 525.62 407.14 C 524.90 407.67 523.92 408.17 522.89 408.65 C 520.82 409.61 518.05 410.65 515.38 411.65 L 515.29 411.69 C 513.27 412.44 511.31 413.18 509.64 413.88 C 511.42 413.89 513.46 413.88 515.54 413.87 L 515.55 413.87 C 518.43 413.85 521.37 413.83 523.60 413.91 C 524.70 413.95 525.71 414.01 526.47 414.12 C 526.83 414.18 527.25 414.26 527.63 414.39 C 527.81 414.46 528.09 414.58 528.37 414.80 C 528.64 415.01 529.10 415.47 529.21 416.22 C 531.03 429.13 532.00 442.62 532.00 456.50 C 532.00 457.32 531.63 457.97 531.30 458.39 C 530.97 458.82 530.54 459.17 530.13 459.47 C 529.31 460.06 528.23 460.63 527.06 461.16 C 524.70 462.23 521.60 463.36 518.60 464.44 L 518.54 464.46 C 515.51 465.56 512.59 466.62 510.41 467.60 C 509.78 467.88 509.24 468.15 508.80 468.39 C 509.13 468.50 509.51 468.62 509.95 468.74 C 512.07 469.32 514.95 469.84 517.95 470.38 L 518.06 470.40 C 520.96 470.93 523.98 471.48 526.26 472.10 C 527.40 472.41 528.50 472.77 529.34 473.22 C 529.75 473.44 530.23 473.75 530.61 474.18 C 531.01 474.63 531.40 475.33 531.34 476.22 C 530.42 489.93 528.55 503.15 525.85 515.67 C 525.71 516.33 525.31 516.74 525.07 516.93 C 524.81 517.14 524.55 517.27 524.37 517.35 C 524.00 517.52 523.57 517.63 523.18 517.71 C 522.39 517.88 521.34 518.02 520.19 518.13 C 517.86 518.36 514.81 518.54 511.81 518.71 L 511.78 518.72 C 509.48 518.85 507.22 518.98 505.29 519.13 C 506.94 519.68 508.86 520.26 510.83 520.86 L 510.95 520.90 C 513.65 521.71 516.44 522.55 518.52 523.35 C 519.56 523.75 520.55 524.18 521.28 524.65 C 521.64 524.88 522.07 525.19 522.41 525.62 C 522.75 526.07 523.16 526.87 522.90 527.85 C 519.48 540.56 515.16 552.41 510.10 563.18 C 509.76 563.90 509.13 564.31 508.82 564.49 C 508.43 564.73 507.96 564.93 507.50 565.11 C 506.56 565.46 505.33 565.82 503.98 566.16 C 501.26 566.86 497.74 567.58 494.28 568.29 L 494.01 568.35 C 490.62 569.04 487.30 569.72 484.75 570.36 C 484.68 570.37 484.61 570.39 484.55 570.41 C 486.27 570.76 488.34 571.11 490.47 571.46 L 490.74 571.50 C 493.47 571.95 496.29 572.41 498.36 572.92 C 499.39 573.17 500.42 573.48 501.17 573.87 C 501.52 574.05 502.06 574.37 502.44 574.93 C 502.65 575.24 502.84 575.66 502.87 576.18 C 502.89 576.70 502.74 577.16 502.53 577.52 C 499.10 583.31 495.42 588.69 491.52 593.58 C 491.11 594.09 490.56 594.38 490.20 594.54 C 489.79 594.73 489.33 594.88 488.86 595.01 C 487.92 595.26 486.74 595.48 485.45 595.67 C 482.85 596.06 479.57 596.38 476.34 596.69 L 475.83 596.74 C 473.02 597.01 470.29 597.27 468.04 597.57 Z M 507.59 469.21 C 507.59 469.21 507.59 469.21 507.59 469.21 Z M 438.67 298.41 C 438.67 298.41 438.67 298.41 438.66 298.40 C 438.67 298.41 438.67 298.41 438.67 298.41 Z M 380.91 314.85 C 380.91 314.85 380.90 314.84 380.89 314.83 C 380.90 314.84 380.91 314.84 380.91 314.85 Z M 362.91 338.11 C 362.91 338.11 362.90 338.12 362.89 338.13 C 362.90 338.12 362.91 338.11 362.91 338.11 Z M 349.33 544.25 C 349.34 544.25 349.33 544.26 349.31 544.30 C 349.32 544.27 349.33 544.25 349.33 544.25 Z M 436.39 620.69 C 436.39 620.69 436.40 620.69 436.41 620.68 C 436.40 620.69 436.39 620.69 436.39 620.69 Z" fill="#a6acbc" fill-rule="evenodd" node-id="44" stroke="none" target-height="339" target-width="213.086" target-x="318.914" target-y="287"></path><path d="M 375.54 581.45 C 374.62 580.59 373.72 579.76 372.84 578.95 C 366.48 573.11 361.06 568.13 355.98 556.29 C 355.48 555.14 352.77 555.11 350.04 555.07 C 347.26 555.04 344.46 555.00 343.99 553.79 C 343.68 552.97 345.63 551.00 347.60 549.02 C 349.57 547.04 351.54 545.05 351.24 544.21 C 346.24 530.17 342.40 514.76 339.96 498.37 C 339.78 497.14 335.17 496.21 330.54 495.28 C 325.86 494.34 321.16 493.39 321.00 492.12 C 320.87 491.02 325.21 489.60 329.57 488.18 C 333.94 486.76 338.33 485.33 338.22 484.21 C 337.76 479.45 340.28 472.58 342.79 465.74 C 345.07 459.52 347.34 453.32 347.34 448.79 C 347.34 443.05 345.06 439.14 342.85 435.36 C 340.51 431.33 338.25 427.46 338.95 421.71 C 339.14 420.08 342.51 419.94 345.88 419.80 C 349.20 419.66 352.52 419.53 352.77 417.96 C 352.88 417.28 353.11 415.68 353.40 413.78 C 353.94 410.15 354.63 405.47 354.86 404.21 C 355.18 402.44 355.50 400.72 355.82 399.04 C 358.78 383.38 361.10 371.17 350.26 359.62 C 348.67 357.92 346.31 356.62 343.89 355.52 C 358.44 346.88 374.97 342.00 392.50 342.00 C 405.79 342.00 411.17 342.00 411.56 343.39 C 412.87 348.09 357.00 368.69 357.00 459.00 C 357.00 528.79 390.37 559.45 404.92 572.82 C 414.77 581.86 416.01 583.00 392.50 583.00 C 386.73 583.00 381.06 582.47 375.54 581.45 Z" fill="#c9d0df" fill-rule="nonzero" node-id="46" stroke="none" target-height="241" target-width="95.13901" target-x="320.87" target-y="342"></path><path d="M 743.92 456.50 C 743.92 481.82 739.66 505.82 732.04 527.33 C 730.84 530.73 733.41 539.07 732.04 542.33 C 730.12 546.91 724.19 546.36 721.97 550.67 C 713.31 567.45 702.39 582.04 689.80 593.70 C 687.10 596.20 692.65 600.53 689.80 602.75 C 687.09 604.87 675.99 604.89 673.15 606.74 C 656.21 617.79 637.13 624.00 616.96 624.00 C 611.17 624.00 609.05 618.17 599.89 622.50 C 597.39 615.35 598.00 612.08 593.65 610.67 C 590.26 609.57 579.85 616.80 576.58 615.35 C 561.67 608.76 547.99 598.61 536.12 585.67 C 533.22 582.50 538.80 572.91 536.12 569.42 C 533.47 565.96 522.54 568.59 520.12 564.83 C 517.71 561.08 521.38 554.34 524.55 548.58 C 529.45 539.68 545.30 533.46 544.53 531.92 C 543.84 530.54 509.53 545.82 508.87 544.42 C 505.22 536.62 504.94 527.63 508.87 518.17 C 511.27 512.40 518.74 506.79 518.31 505.25 C 517.84 503.60 497.11 511.93 496.68 510.25 C 494.81 502.96 493.31 495.45 492.21 487.75 C 491.93 485.82 516.03 478.04 515.81 476.08 C 515.63 474.56 503.19 477.27 497.49 472.75 C 492.02 468.41 490.00 463.56 490.00 456.50 C 490.00 451.16 501.70 447.96 502.07 442.75 C 502.41 437.97 501.43 427.83 502.07 423.17 C 504.29 406.96 498.24 394.89 503.73 380.67 C 504.93 377.55 518.63 379.50 519.97 376.50 C 521.37 373.38 510.41 365.32 511.95 362.33 C 518.84 348.98 527.16 337.00 536.62 326.79 C 537.90 325.41 560.69 347.81 562.01 346.50 C 563.20 345.32 542.90 320.42 544.11 319.30 C 545.75 317.78 547.42 316.32 549.11 314.90 C 552.60 311.98 567.87 320.64 571.59 318.17 C 576.93 314.62 570.84 300.19 576.58 297.65 C 589.27 292.04 602.84 289.00 616.96 289.00 C 634.85 289.00 651.88 293.88 667.33 302.70 C 670.74 304.64 694.05 310.43 697.30 312.75 C 701.62 315.83 685.80 315.59 689.80 319.30 C 700.26 328.98 709.56 340.69 717.38 354.00 C 718.97 356.71 742.45 365.32 743.92 368.17 C 745.46 371.15 724.98 368.38 726.38 371.50 C 737.52 396.42 743.92 425.47 743.92 456.50 Z" fill="#e6eaf3" fill-rule="nonzero" node-id="48" stroke="none" target-height="335" target-width="255.45898" target-x="490" target-y="289"></path><path d="M 598.74 625.26 L 598.00 623.16 C 597.36 621.30 596.91 619.70 596.54 618.36 C 596.51 618.24 596.48 618.12 596.45 618.01 C 596.12 616.80 595.88 615.89 595.59 615.13 C 595.29 614.32 595.00 613.84 594.67 613.49 C 594.35 613.16 593.88 612.84 593.03 612.57 C 593.04 612.57 593.03 612.57 593.00 612.56 C 592.98 612.56 592.94 612.55 592.88 612.55 C 592.76 612.55 592.59 612.56 592.37 612.59 C 591.91 612.66 591.34 612.80 590.65 613.04 C 589.31 613.48 587.77 614.15 586.12 614.87 L 585.87 614.98 C 584.17 615.71 582.35 616.49 580.74 616.99 C 579.93 617.24 579.10 617.44 578.30 617.51 C 577.53 617.58 576.62 617.56 575.77 617.18 C 560.58 610.46 546.68 600.14 534.65 587.02 C 533.36 585.61 533.20 583.72 533.28 582.18 C 533.36 580.59 533.74 578.82 534.08 577.24 L 534.08 577.24 L 534.09 577.23 C 534.44 575.57 534.76 574.11 534.85 572.84 C 534.94 571.52 534.74 570.90 534.54 570.63 C 534.33 570.37 533.77 570.00 532.44 569.73 C 531.20 569.47 529.72 569.36 528.05 569.24 L 527.89 569.23 C 526.24 569.11 524.40 568.97 522.81 568.59 C 521.26 568.23 519.48 567.52 518.44 565.91 C 516.69 563.19 517.32 559.74 518.36 556.80 C 519.43 553.74 521.23 550.47 522.80 547.62 C 524.82 543.94 528.44 540.78 532.00 538.23 C 530.52 538.81 529.00 539.41 527.47 540.02 L 527.43 540.04 C 523.06 541.77 518.66 543.51 515.31 544.74 C 513.64 545.35 512.19 545.85 511.11 546.15 C 510.58 546.30 510.06 546.42 509.61 546.48 C 509.40 546.50 509.09 546.53 508.74 546.48 C 508.52 546.45 507.54 546.28 507.06 545.26 C 503.16 536.93 502.89 527.34 507.03 517.40 C 508.38 514.15 511.09 511.06 513.18 508.77 C 513.43 508.50 513.67 508.23 513.90 507.98 C 513.94 507.94 513.98 507.89 514.02 507.85 C 512.28 508.35 510.20 509.00 508.08 509.67 L 508.06 509.67 C 505.44 510.50 502.74 511.35 500.67 511.88 C 499.65 512.14 498.68 512.36 497.92 512.44 C 497.56 512.48 497.09 512.50 496.63 512.42 C 496.30 512.36 495.08 512.07 494.74 510.75 C 492.85 503.39 491.34 495.80 490.23 488.03 C 490.14 487.43 490.32 486.93 490.48 486.62 C 490.64 486.31 490.84 486.08 491.00 485.92 C 491.32 485.60 491.71 485.32 492.08 485.09 C 492.82 484.61 493.84 484.10 494.96 483.57 C 497.22 482.52 500.24 481.29 503.19 480.09 L 503.23 480.07 C 505.38 479.20 507.49 478.34 509.31 477.55 C 509.10 477.55 508.89 477.54 508.68 477.54 C 506.71 477.50 504.48 477.36 502.33 476.92 C 500.20 476.48 498.02 475.72 496.25 474.32 C 493.31 471.99 491.21 469.45 489.87 466.47 C 488.53 463.49 488.00 460.22 488.00 456.50 C 488.00 454.39 489.16 452.71 490.40 451.44 C 491.65 450.15 493.28 448.99 494.74 447.95 L 494.84 447.88 C 496.32 446.82 497.64 445.88 498.63 444.91 C 499.67 443.91 500.04 443.17 500.08 442.61 C 500.22 440.60 500.12 437.56 500.00 434.25 C 499.99 433.83 499.98 433.40 499.96 432.98 C 499.84 429.32 499.74 425.43 500.09 422.89 C 501.00 416.26 500.48 410.38 499.95 404.51 C 499.86 403.45 499.77 402.39 499.68 401.33 C 499.13 394.45 498.95 387.50 501.86 379.95 C 502.26 378.91 503.10 378.30 503.81 377.94 C 504.53 377.57 505.37 377.33 506.18 377.17 C 507.81 376.83 509.81 376.68 511.65 376.54 L 511.68 376.54 C 513.58 376.40 515.31 376.27 516.66 376.01 C 517.29 375.89 517.74 375.76 518.03 375.63 C 517.93 375.36 517.74 374.98 517.41 374.48 C 516.69 373.37 515.60 372.09 514.38 370.67 L 514.34 370.61 C 513.19 369.27 511.93 367.79 511.07 366.45 C 510.63 365.77 510.21 365.01 509.99 364.23 C 509.76 363.45 509.65 362.42 510.17 361.42 C 517.14 347.91 525.56 335.79 535.15 325.44 C 535.72 324.82 536.44 324.72 536.85 324.73 C 537.25 324.74 537.58 324.85 537.80 324.93 C 538.24 325.09 538.69 325.35 539.10 325.61 C 539.95 326.15 541.02 326.97 542.20 327.92 C 544.57 329.83 547.62 332.49 550.62 335.12 L 550.65 335.14 C 552.12 336.43 553.59 337.71 554.97 338.90 C 553.86 337.36 552.65 335.72 551.44 334.06 L 551.41 334.02 C 549.04 330.79 546.64 327.52 544.91 324.98 C 544.05 323.72 543.32 322.58 542.83 321.71 C 542.60 321.28 542.37 320.83 542.23 320.41 C 542.16 320.21 542.08 319.90 542.06 319.54 C 542.05 319.22 542.09 318.44 542.75 317.83 C 544.42 316.29 546.11 314.80 547.83 313.37 C 548.72 312.62 549.83 312.37 550.80 312.31 C 551.79 312.25 552.87 312.36 553.93 312.56 C 556.06 312.95 558.54 313.72 560.87 314.46 C 560.97 314.49 561.07 314.52 561.18 314.55 C 563.46 315.28 565.60 315.95 567.41 316.33 C 568.35 316.52 569.11 316.62 569.68 316.62 C 570.29 316.61 570.48 316.50 570.48 316.50 C 571.10 316.09 571.59 315.24 571.83 313.54 C 572.07 311.88 572.01 309.90 571.94 307.70 L 571.93 307.59 C 571.87 305.46 571.80 303.08 572.16 301.07 C 572.53 299.04 573.44 296.85 575.77 295.82 C 588.70 290.10 602.55 287.00 616.96 287.00 C 635.23 287.00 652.60 291.99 668.32 300.96 C 668.58 301.11 669.16 301.36 670.14 301.71 C 671.07 302.05 672.24 302.43 673.59 302.86 C 675.78 303.55 678.39 304.32 681.09 305.12 C 681.70 305.30 682.32 305.48 682.94 305.67 C 686.27 306.66 689.62 307.67 692.36 308.58 C 693.72 309.03 694.95 309.47 695.96 309.88 C 696.92 310.26 697.84 310.68 698.46 311.12 C 699.06 311.55 700.10 312.44 700.05 313.84 C 700.00 315.27 698.86 316.01 698.39 316.29 C 697.78 316.64 697.04 316.90 696.37 317.11 C 695.76 317.30 695.08 317.48 694.45 317.65 C 694.36 317.68 694.28 317.70 694.19 317.72 C 693.46 317.92 692.78 318.11 692.20 318.31 C 692.06 318.35 691.93 318.40 691.82 318.44 C 702.14 328.13 711.33 339.76 719.06 352.91 C 719.08 352.93 719.12 352.97 719.19 353.03 C 719.36 353.17 719.62 353.35 719.98 353.58 C 720.70 354.03 721.69 354.57 722.89 355.17 C 725.19 356.33 728.12 357.67 731.12 359.03 L 731.52 359.21 C 734.64 360.63 737.81 362.08 740.29 363.36 C 741.53 363.99 742.64 364.61 743.51 365.18 C 743.95 365.46 744.36 365.76 744.71 366.06 C 745.02 366.33 745.43 366.73 745.69 367.25 C 746.00 367.83 746.16 368.65 745.78 369.48 C 745.46 370.21 744.87 370.61 744.48 370.81 C 743.72 371.21 742.73 371.39 741.88 371.49 C 740.12 371.71 737.72 371.75 735.46 371.78 L 735.23 371.78 C 732.81 371.82 730.57 371.86 729.01 372.06 C 728.95 372.07 728.89 372.08 728.83 372.09 C 739.71 396.96 745.92 425.78 745.92 456.50 C 745.92 482.04 741.62 506.27 733.92 528.00 C 733.76 528.47 733.67 529.31 733.72 530.57 C 733.77 531.75 733.91 533.08 734.07 534.50 L 734.09 534.66 C 734.25 536.11 734.41 537.65 734.45 539.04 C 734.48 540.39 734.40 541.88 733.88 543.11 C 732.61 546.16 729.96 547.44 728.02 548.39 L 727.99 548.40 C 725.86 549.44 724.50 550.12 723.75 551.58 C 714.99 568.55 703.94 583.34 691.16 595.17 L 691.16 595.17 C 691.06 595.26 691.01 595.31 691.05 595.62 C 691.11 596.08 691.33 596.66 691.71 597.56 L 691.75 597.67 C 692.06 598.42 692.51 599.49 692.62 600.55 C 692.68 601.15 692.64 601.83 692.38 602.53 C 692.12 603.24 691.65 603.85 691.03 604.33 C 689.96 605.16 688.35 605.63 686.89 605.96 C 685.34 606.30 683.53 606.57 681.81 606.82 C 681.66 606.85 681.51 606.87 681.35 606.89 C 679.76 607.12 678.25 607.34 676.96 607.60 C 675.46 607.89 674.59 608.19 674.25 608.41 C 657.01 619.66 637.56 626.00 616.96 626.00 C 615.15 626.00 613.66 625.54 612.37 625.00 C 611.82 624.78 611.28 624.52 610.79 624.29 C 610.72 624.26 610.65 624.23 610.58 624.19 C 610.02 623.93 609.50 623.69 608.98 623.49 C 607.95 623.10 606.92 622.86 605.69 622.90 C 604.44 622.95 602.85 623.31 600.75 624.31 L 598.74 625.26 Z M 691.02 317.68 C 691.02 317.68 691.03 317.69 691.04 317.70 C 691.03 317.69 691.02 317.68 691.02 317.68 Z M 690.90 318.88 C 690.88 318.90 690.88 318.90 690.87 318.90 C 690.87 318.90 690.88 318.90 690.90 318.88 Z M 560.64 343.57 C 560.89 343.96 561.12 344.32 561.31 344.64 C 561.90 345.66 562.18 346.33 562.01 346.50 C 561.82 346.69 561.17 346.38 560.19 345.70 C 559.88 345.49 559.53 345.23 559.15 344.95 C 556.71 343.09 553.03 339.88 549.36 336.67 C 543.31 331.39 537.26 326.10 536.62 326.79 C 527.16 337.00 518.84 348.98 511.95 362.33 C 511.18 363.83 513.54 366.60 515.92 369.38 C 518.29 372.15 520.67 374.94 519.97 376.50 C 519.31 377.98 515.62 378.26 511.92 378.53 C 508.13 378.81 504.33 379.09 503.73 380.67 C 500.57 388.86 501.24 396.33 501.94 404.29 C 502.47 410.16 503.01 416.29 502.07 423.17 C 501.72 425.76 501.86 430.06 502.00 434.19 C 502.11 437.46 502.22 440.63 502.07 442.75 C 501.89 445.31 498.98 447.38 496.07 449.46 C 493.04 451.61 490.00 453.78 490.00 456.50 C 490.00 463.56 492.02 468.41 497.49 472.75 C 501.10 475.61 507.42 475.57 511.61 475.55 C 512.30 475.55 512.93 475.54 513.49 475.55 C 513.63 475.56 513.77 475.56 513.90 475.56 C 515.05 475.60 515.77 475.73 515.81 476.08 C 515.84 476.39 515.30 476.83 514.35 477.37 C 514.23 477.43 514.11 477.50 513.98 477.57 C 511.77 478.75 507.88 480.34 503.98 481.93 C 498.02 484.36 492.07 486.78 492.21 487.75 C 493.31 495.45 494.81 502.96 496.68 510.25 C 496.89 511.09 502.20 509.42 507.50 507.75 C 510.86 506.70 514.21 505.64 516.27 505.22 C 516.29 505.22 516.31 505.21 516.34 505.21 C 517.49 504.98 518.22 504.95 518.31 505.25 C 518.41 505.61 518.07 506.20 517.46 506.97 C 517.44 507.00 517.42 507.03 517.39 507.06 C 516.86 507.71 516.15 508.49 515.35 509.37 C 513.11 511.80 510.21 514.96 508.87 518.17 C 504.94 527.63 505.22 536.62 508.87 544.42 C 509.20 545.12 517.99 541.63 526.75 538.15 C 531.75 536.17 536.73 534.19 540.15 532.99 C 541.08 532.66 541.89 532.39 542.56 532.19 C 543.73 531.85 544.44 531.73 544.53 531.92 C 544.68 532.23 544.17 532.73 543.20 533.40 C 542.62 533.81 541.87 534.28 541.01 534.80 C 540.69 535.00 540.34 535.21 539.99 535.43 C 535.10 538.41 527.64 542.96 524.55 548.58 C 521.38 554.34 517.71 561.08 520.12 564.83 C 521.36 566.75 524.82 567.00 528.27 567.25 C 531.55 567.49 534.83 567.73 536.12 569.42 C 537.45 571.14 536.75 574.36 536.06 577.55 C 535.36 580.82 534.65 584.06 536.12 585.67 C 547.99 598.61 561.67 608.76 576.58 615.35 C 578.26 616.10 581.83 614.55 585.36 613.02 C 588.70 611.57 592.00 610.13 593.65 610.67 C 596.81 611.69 597.36 613.70 598.38 617.46 C 598.63 618.39 598.91 619.43 599.26 620.59 C 599.45 621.19 599.66 621.83 599.89 622.50 C 600.54 622.19 601.16 621.94 601.74 621.73 C 606.42 620.03 609.06 621.27 611.64 622.48 C 613.27 623.25 614.88 624.00 616.96 624.00 C 637.13 624.00 656.21 617.79 673.15 606.74 C 674.51 605.86 677.75 605.39 681.06 604.91 C 684.68 604.39 688.39 603.86 689.80 602.75 C 691.23 601.64 690.55 600.00 689.86 598.32 C 689.16 596.65 688.46 594.95 689.80 593.70 C 702.39 582.04 713.31 567.45 721.97 550.67 C 723.05 548.58 724.99 547.63 726.93 546.69 C 729.00 545.69 731.05 544.69 732.04 542.33 C 732.74 540.66 732.41 537.67 732.08 534.68 C 731.76 531.83 731.45 528.99 732.04 527.33 C 739.66 505.82 743.92 481.82 743.92 456.50 C 743.92 425.47 737.52 396.42 726.38 371.50 C 725.67 369.92 730.55 369.85 735.36 369.78 C 740.05 369.71 744.68 369.64 743.92 368.17 C 743.17 366.71 736.66 363.75 730.27 360.84 C 724.16 358.06 718.16 355.33 717.38 354.00 C 709.56 340.69 700.26 328.98 689.80 319.30 C 687.75 317.39 690.93 316.53 693.93 315.72 C 696.75 314.96 699.39 314.25 697.30 312.75 C 695.52 311.48 687.76 309.18 680.52 307.04 C 674.52 305.25 668.87 303.58 667.33 302.70 C 651.88 293.88 634.85 289.00 616.96 289.00 C 602.84 289.00 589.27 292.04 576.58 297.65 C 573.66 298.94 573.80 303.30 573.94 307.74 C 574.08 312.04 574.22 316.42 571.59 318.17 C 569.77 319.37 565.22 317.93 560.62 316.48 C 555.78 314.95 550.90 313.40 549.11 314.90 C 547.42 316.32 545.75 317.78 544.11 319.30 C 543.51 319.86 548.27 326.35 553.04 332.86 C 556.00 336.89 558.96 340.94 560.64 343.57 Z M 518.09 375.89 C 518.09 375.89 518.09 375.89 518.09 375.88 C 518.09 375.89 518.09 375.89 518.09 375.89 Z M 518.27 375.50 C 518.27 375.50 518.27 375.50 518.27 375.50 C 518.27 375.50 518.27 375.50 518.27 375.50 Z" fill="#a6acbc" fill-rule="evenodd" node-id="50" stroke="none" target-height="339" target-width="258.15704" target-x="488" target-y="287"></path><path d="M 732.04 527.33 C 739.66 505.82 743.92 481.82 743.92 456.50 C 743.92 453.29 743.85 450.11 743.71 446.94 C 736.22 432.53 725.25 420.79 711.03 413.22 C 697.88 406.21 692.31 403.24 689.86 404.90 C 683.46 409.23 698.48 445.26 655.00 523.50 C 626.31 575.13 601.12 599.63 585.65 612.89 C 588.89 611.49 592.05 610.15 593.65 610.67 C 596.81 611.69 597.36 613.70 598.38 617.46 C 598.76 618.88 599.21 620.54 599.89 622.50 C 605.76 619.72 608.74 621.12 611.64 622.48 C 613.27 623.25 614.88 624.00 616.96 624.00 C 637.13 624.00 656.21 617.79 673.15 606.74 C 674.51 605.86 677.75 605.39 681.06 604.91 C 684.68 604.39 688.39 603.86 689.80 602.75 C 691.23 601.64 690.55 600.00 689.85 598.32 C 689.16 596.65 688.46 594.95 689.80 593.70 C 702.39 582.04 713.31 567.45 721.97 550.67 C 723.05 548.58 724.99 547.63 726.93 546.69 C 729.00 545.69 731.05 544.69 732.04 542.33 C 732.74 540.66 732.41 537.67 732.08 534.68 C 731.76 531.83 731.45 528.99 732.04 527.33 Z" fill="#f1f4fc" fill-rule="evenodd" node-id="52" stroke="none" target-height="220.75699" target-width="158.26599" target-x="585.651" target-y="403.243"></path><path d="M 685.82 623.41 C 773.31 623.41 743.50 717.00 509.74 717.00 C 313.75 717.00 179.24 620.27 335.01 630.31 C 443.08 637.28 469.69 629.26 405.44 601.68 C 369.15 586.11 363.36 559.77 482.93 549.04 C 548.13 543.19 621.56 549.04 646.60 578.28 C 664.71 599.45 550.63 623.41 685.82 623.41 Z" fill="#e5ecfa" fill-rule="nonzero" node-id="54" stroke="none" target-height="173.81097" target-width="594.067" target-x="179.241" target-y="543.189"></path><path d="M 648.67 704.31 C 614.17 713.14 568.31 719.00 509.74 719.00 C 411.49 719.00 328.49 694.77 289.45 671.61 C 279.70 665.83 272.50 660.00 268.54 654.50 C 266.56 651.73 265.30 648.92 265.05 646.15 C 264.79 643.31 265.61 640.66 267.49 638.36 C 271.11 633.91 278.53 630.87 289.45 629.18 C 300.50 627.46 315.60 627.06 335.14 628.32 C 362.13 630.06 384.00 630.86 400.62 630.66 C 417.33 630.46 428.44 629.23 434.14 627.08 C 437.08 625.97 437.81 624.90 437.92 624.33 C 438.03 623.74 437.73 622.43 435.37 620.23 C 430.81 615.98 420.74 610.43 404.65 603.52 C 395.48 599.59 387.94 594.86 383.85 589.63 C 381.78 586.98 380.49 584.09 380.48 581.02 C 380.47 577.92 381.76 574.95 384.25 572.20 C 389.15 566.81 398.99 561.91 414.76 557.67 C 430.62 553.40 452.80 549.73 482.75 547.05 C 515.46 544.11 550.28 544.11 580.12 548.52 C 609.83 552.92 635.09 561.77 648.12 576.99 C 649.45 578.55 650.26 580.22 650.52 581.99 C 650.77 583.76 650.45 585.47 649.78 587.07 C 648.47 590.20 645.73 593.12 642.66 595.77 C 639.62 598.41 636.03 600.96 632.68 603.35 L 632.48 603.49 C 629.02 605.95 625.89 608.20 623.66 610.25 C 622.55 611.28 621.75 612.18 621.27 612.95 C 620.78 613.73 620.73 614.20 620.76 614.45 C 620.78 614.65 620.91 615.04 621.66 615.60 C 622.43 616.18 623.74 616.81 625.78 617.42 C 634.05 619.90 651.96 621.41 685.82 621.41 C 707.86 621.41 723.31 627.28 729.75 636.92 C 733.03 641.83 733.85 647.56 732.11 653.58 C 730.39 659.53 726.20 665.68 719.59 671.68 C 706.39 683.69 683.13 695.50 648.67 704.31 Z M 509.74 717.00 C 743.50 717.00 773.31 623.41 685.82 623.41 C 601.05 623.41 614.29 613.99 631.49 601.74 C 641.72 594.46 653.35 586.18 646.60 578.28 C 621.56 549.04 548.13 543.19 482.93 549.04 C 363.36 559.77 369.15 586.11 405.44 601.68 C 469.69 629.26 443.08 637.28 335.01 630.31 C 179.24 620.27 313.75 717.00 509.74 717.00 Z" fill="#a6acbc" fill-rule="evenodd" node-id="56" stroke="none" target-height="175.81097" target-width="594.067" target-x="179.241" target-y="543.189"></path><path d="M 509.74 717.00 C 743.50 717.00 773.31 623.41 685.82 623.41 C 674.48 623.41 664.90 623.24 656.85 622.92 C 690.04 641.29 652.14 705.00 502.54 705.00 C 386.53 705.00 299.33 648.69 325.75 629.83 C 184.81 624.22 317.79 717.00 509.74 717.00 Z M 439.77 625.14 C 457.63 621.84 453.04 613.03 424.53 597.82 C 398.18 583.77 393.33 560.27 474.97 549.79 C 363.63 560.96 369.97 586.46 405.44 601.68 C 430.23 612.33 441.50 620.05 439.77 625.14 Z M 520.88 547.05 C 557.26 547.73 591.01 555.93 604.88 576.08 C 609.93 583.41 601.23 591.11 593.58 597.88 C 581.65 608.43 572.27 616.73 621.53 617.88 C 614.33 613.96 622.35 608.25 631.49 601.74 C 641.72 594.46 653.35 586.18 646.60 578.28 C 626.35 554.64 574.47 546.28 520.88 547.05 Z" fill="#f1f4fc" fill-rule="evenodd" node-id="58" stroke="none" target-height="170.71503" target-width="588.49695" target-x="184.811" target-y="546.285"></path><path d="M 599.00 574.50 C 599.00 602.94 560.72 626.00 513.50 626.00 C 466.28 626.00 428.00 602.94 428.00 574.50 C 428.00 546.06 466.28 523.00 513.50 523.00 C 560.72 523.00 599.00 546.06 599.00 574.50 Z" fill="#c9d0df" fill-rule="nonzero" node-id="60" stroke="none" target-height="103" target-width="171" target-x="428" target-y="523"></path><path d="M 572.93 609.20 C 588.08 600.08 597.00 587.75 597.00 574.50 C 597.00 561.25 588.08 548.92 572.93 539.80 C 557.81 530.70 536.81 525.00 513.50 525.00 C 490.19 525.00 469.19 530.70 454.07 539.80 C 438.92 548.92 430.00 561.25 430.00 574.50 C 430.00 587.75 438.92 600.08 454.07 609.20 C 469.19 618.30 490.19 624.00 513.50 624.00 C 536.81 624.00 557.81 618.30 572.93 609.20 Z M 513.50 626.00 C 560.72 626.00 599.00 602.94 599.00 574.50 C 599.00 546.06 560.72 523.00 513.50 523.00 C 466.28 523.00 428.00 546.06 428.00 574.50 C 428.00 602.94 466.28 626.00 513.50 626.00 Z" fill="#a6acbc" fill-rule="evenodd" node-id="62" stroke="none" target-height="103" target-width="171" target-x="428" target-y="523"></path><path d="M 581.00 559.00 C 589.00 574.50 560.00 586.76 525.00 594.00 C 496.00 600.00 486.00 580.00 462.00 565.50 C 438.00 551.00 484.74 530.50 516.50 530.50 C 548.26 530.50 568.26 534.32 581.00 559.00 Z" fill="#dde3ef" fill-rule="nonzero" node-id="64" stroke="none" target-height="69.5" target-width="151" target-x="438" target-y="530.5"></path><path d="M 546.00 547.00 C 546.00 553.08 534.36 558.00 520.00 558.00 C 505.64 558.00 494.00 553.08 494.00 547.00 C 494.00 540.92 505.64 536.00 520.00 536.00 C 534.36 536.00 546.00 540.92 546.00 547.00 Z" fill="#f1f4fc" fill-rule="nonzero" node-id="66" stroke="none" target-height="22" target-width="52" target-x="494" target-y="536"></path><g node-id="77"><path d="M 569.24 561.67 C 570.84 564.25 566.24 570.01 558.97 574.52 C 551.70 579.03 544.50 580.60 542.90 578.02 C 541.30 575.44 545.90 569.69 553.17 565.17 C 560.44 560.66 567.64 559.09 569.24 561.67 Z" fill="#f1f4fc" fill-rule="nonzero" group-id="1" node-id="70" stroke="none" target-height="21.509583" target-width="29.542847" target-x="541.2986" target-y="559.09216"></path></g><path d="M 443.89 912.00 C 442.70 912.00 441.78 911.70 441.14 911.10 C 440.50 910.46 440.18 909.52 440.18 908.29 L 440.18 868.29 C 440.18 867.05 440.50 866.13 441.14 865.54 C 441.78 864.90 442.70 864.58 443.89 864.58 L 446.00 864.58 L 446.00 912.00 L 443.89 912.00 Z M 466.04 864.58 C 466.76 864.58 467.32 864.77 467.70 865.15 C 468.08 865.49 468.28 866.03 468.28 866.75 L 468.28 867.97 C 468.28 868.65 468.08 869.18 467.70 869.57 C 467.32 869.95 466.76 870.14 466.04 870.14 L 444.85 870.14 L 444.85 864.58 L 466.04 864.58 Z M 466.04 906.43 C 466.76 906.43 467.32 906.62 467.70 907.01 C 468.08 907.39 468.28 907.92 468.28 908.61 L 468.28 909.82 C 468.28 910.55 468.08 911.10 467.70 911.49 C 467.32 911.83 466.76 912.00 466.04 912.00 L 444.85 912.00 L 444.85 906.43 L 466.04 906.43 Z M 464.12 885.63 C 464.80 885.63 465.31 885.82 465.65 886.21 C 465.99 886.55 466.17 887.04 466.17 887.68 L 466.17 888.83 C 466.17 889.47 465.99 889.98 465.65 890.37 C 465.31 890.71 464.80 890.88 464.12 890.88 L 444.85 890.88 L 444.85 885.63 L 464.12 885.63 Z M 481.41 909.82 C 481.41 910.55 481.22 911.10 480.84 911.49 C 480.45 911.83 479.90 912.00 479.17 912.00 L 478.02 912.00 C 477.29 912.00 476.74 911.83 476.36 911.49 C 476.01 911.10 475.84 910.55 475.84 909.82 L 475.84 880.26 C 475.84 879.53 476.01 879.00 476.36 878.66 C 476.74 878.27 477.29 878.08 478.02 878.08 L 479.17 878.08 C 479.90 878.08 480.45 878.27 480.84 878.66 C 481.22 879.00 481.41 879.53 481.41 880.26 L 481.41 909.82 Z M 475.84 898.62 C 475.84 895.17 476.46 891.90 477.70 888.83 C 478.98 885.76 480.75 883.22 483.01 881.22 C 485.27 879.21 487.81 878.00 490.63 877.57 C 491.31 877.44 491.84 877.57 492.23 877.95 C 492.65 878.29 492.87 878.80 492.87 879.49 L 492.87 880.64 C 492.87 881.32 492.70 881.86 492.36 882.24 C 492.06 882.58 491.59 882.79 490.95 882.88 C 489.03 883.05 487.34 883.67 485.89 884.74 C 484.44 885.76 483.33 887.17 482.56 888.96 C 481.80 890.71 481.41 892.78 481.41 895.17 L 475.84 898.62 Z M 503.85 909.82 C 503.85 910.55 503.66 911.10 503.27 911.49 C 502.89 911.83 502.33 912.00 501.61 912.00 L 500.46 912.00 C 499.73 912.00 499.18 911.83 498.79 911.49 C 498.45 911.10 498.28 910.55 498.28 909.82 L 498.28 880.26 C 498.28 879.53 498.45 879.00 498.79 878.66 C 499.18 878.27 499.73 878.08 500.46 878.08 L 501.61 878.08 C 502.33 878.08 502.89 878.27 503.27 878.66 C 503.66 879.00 503.85 879.53 503.85 880.26 L 503.85 909.82 Z M 498.28 898.62 C 498.28 895.17 498.90 891.90 500.14 888.83 C 501.42 885.76 503.19 883.22 505.45 881.22 C 507.71 879.21 510.25 878.00 513.07 877.57 C 513.75 877.44 514.28 877.57 514.66 877.95 C 515.09 878.29 515.30 878.80 515.30 879.49 L 515.30 880.64 C 515.30 881.32 515.13 881.86 514.79 882.24 C 514.49 882.58 514.02 882.79 513.38 882.88 C 511.46 883.05 509.78 883.67 508.33 884.74 C 506.88 885.76 505.77 887.17 505.00 888.96 C 504.23 890.71 503.85 892.78 503.85 895.17 L 498.28 898.62 Z M 535.98 907.58 C 538.28 907.58 540.35 907.05 542.19 905.98 C 544.02 904.87 545.43 903.38 546.41 901.50 C 547.44 899.58 547.95 897.43 547.95 895.04 C 547.95 892.61 547.44 890.45 546.41 888.58 C 545.43 886.66 544.02 885.16 542.19 884.10 C 540.35 883.03 538.28 882.50 535.98 882.50 C 533.68 882.50 531.61 883.03 529.77 884.10 C 527.94 885.16 526.51 886.66 525.48 888.58 C 524.50 890.45 524.01 892.61 524.01 895.04 C 524.01 897.43 524.52 899.58 525.55 901.50 C 526.57 903.38 527.98 904.87 529.77 905.98 C 531.61 907.05 533.68 907.58 535.98 907.58 Z M 535.98 912.70 C 532.78 912.70 529.82 911.91 527.08 910.34 C 524.40 908.72 522.26 906.56 520.68 903.87 C 519.11 901.14 518.32 898.20 518.32 895.04 C 518.32 891.84 519.11 888.90 520.68 886.21 C 522.30 883.48 524.46 881.32 527.15 879.74 C 529.88 878.16 532.82 877.38 535.98 877.38 C 539.18 877.38 542.12 878.16 544.81 879.74 C 547.54 881.32 549.70 883.48 551.28 886.21 C 552.86 888.90 553.64 891.84 553.64 895.04 C 553.64 898.20 552.86 901.14 551.28 903.87 C 549.70 906.56 547.54 908.72 544.81 910.34 C 542.12 911.91 539.18 912.70 535.98 912.70 Z M 565.97 909.82 C 565.97 910.55 565.78 911.10 565.40 911.49 C 565.01 911.83 564.46 912.00 563.73 912.00 L 562.58 912.00 C 561.86 912.00 561.30 911.83 560.92 911.49 C 560.58 911.10 560.41 910.55 560.41 909.82 L 560.41 880.26 C 560.41 879.53 560.58 879.00 560.92 878.66 C 561.30 878.27 561.86 878.08 562.58 878.08 L 563.73 878.08 C 564.46 878.08 565.01 878.27 565.40 878.66 C 565.78 879.00 565.97 879.53 565.97 880.26 L 565.97 909.82 Z M 560.41 898.62 C 560.41 895.17 561.02 891.90 562.26 888.83 C 563.54 885.76 565.31 883.22 567.57 881.22 C 569.84 879.21 572.37 878.00 575.19 877.57 C 575.87 877.44 576.41 877.57 576.79 877.95 C 577.22 878.29 577.43 878.80 577.43 879.49 L 577.43 880.64 C 577.43 881.32 577.26 881.86 576.92 882.24 C 576.62 882.58 576.15 882.79 575.51 882.88 C 573.59 883.05 571.90 883.67 570.45 884.74 C 569.00 885.76 567.89 887.17 567.13 888.96 C 566.36 890.71 565.97 892.78 565.97 895.17 L 560.41 898.62 Z" fill="#aaaaaa" fill-rule="nonzero" node-id="73" stroke="none" target-height="48.12799" target-width="137.24902" target-x="440.18097" target-y="864.576"></path><path d="M 421.00 412.00 L 476.00 398.00 C 476.00 398.00 482.00 419.50 480.00 449.00 C 478.00 478.50 464.00 502.00 464.00 502.00 L 427.00 491.00 C 427.00 491.00 433.50 471.00 431.00 449.00 C 428.50 427.00 421.00 412.00 421.00 412.00 Z" fill="#f1f4fc" fill-rule="nonzero" node-id="75" stroke="none" target-height="104" target-width="61" target-x="421" target-y="398"></path></svg>